M48
;GenerationSoftware,Autodesk,EAGLE,9.6.2*%
;CreationDate,2023-11-07T09:58:57Z*%
FMAT,2
ICI,OFF
METRIC,TZ,000.000
T4C0.600
T3C0.850
T2C1.016
T1C1.194
%
G90
M71
T1
X86400Y10160
X91400Y10160
T2
X69850Y58420
X13970Y6350
X69850Y55880
X69850Y53340
X69850Y50800
X73660Y50800
X73660Y53340
X73660Y55880
X73660Y58420
X92710Y35560
X92710Y33020
X92710Y30480
X92710Y27940
X8890Y6350
X11430Y6350
X16510Y6350
X19050Y6350
X21590Y6350
X87630Y17780
X90170Y17780
T3
X59690Y22860
X59690Y25400
X59690Y27940
X59690Y30480
X59690Y33020
X59690Y35560
X59690Y38100
X59690Y40640
X36830Y35560
X59690Y48260
X59690Y50800
X59690Y53340
X59690Y55880
X59690Y58420
X59690Y60960
X59690Y63500
X36830Y17780
X36830Y20320
X36830Y22860
X36830Y25400
X36830Y27940
X36830Y30480
X36830Y33020
X36830Y38100
X36830Y40640
X36830Y43180
X36830Y45720
X36830Y48260
X36830Y50800
X59690Y45720
X36830Y53340
X36830Y55880
X36830Y58420
X36830Y60960
X36830Y63500
X59690Y17780
X59690Y20320
T4
X59690Y43180
M30