G04 EAGLE Gerber RS-274X export*
G75*
%MOMM*%
%FSLAX34Y34*%
%LPD*%
%INSoldermask Bottom*%
%IPPOS*%
%AMOC8*
5,1,8,0,0,1.08239X$1,22.5*%
G01*
%ADD10R,1.561200X1.561200*%
%ADD11R,1.311200X1.311200*%
%ADD12C,1.727200*%
%ADD13C,1.993900*%


D10*
X368300Y177800D03*
X368300Y203200D03*
X368300Y228600D03*
X368300Y254000D03*
X368300Y279400D03*
X368300Y304800D03*
X368300Y330200D03*
X368300Y355600D03*
X368300Y381000D03*
X368300Y406400D03*
X368300Y431800D03*
X368300Y457200D03*
X368300Y482600D03*
X368300Y508000D03*
X368300Y533400D03*
X368300Y558800D03*
X368300Y584200D03*
X368300Y609600D03*
X368300Y635000D03*
X596900Y177800D03*
X596900Y203200D03*
X596900Y228600D03*
X596900Y254000D03*
X596900Y279400D03*
X596900Y304800D03*
X596900Y330200D03*
X596900Y355600D03*
X596900Y381000D03*
X596900Y406400D03*
D11*
X596900Y431800D03*
D10*
X596900Y457200D03*
X596900Y482600D03*
X596900Y508000D03*
X596900Y533400D03*
X596900Y558800D03*
X596900Y584200D03*
X596900Y609600D03*
X596900Y635000D03*
D12*
X690880Y584200D02*
X706120Y584200D01*
X706120Y558800D02*
X690880Y558800D01*
X690880Y533400D02*
X706120Y533400D01*
X706120Y508000D02*
X690880Y508000D01*
X728980Y508000D02*
X744220Y508000D01*
X744220Y533400D02*
X728980Y533400D01*
X728980Y558800D02*
X744220Y558800D01*
X744220Y584200D02*
X728980Y584200D01*
X919480Y355600D02*
X934720Y355600D01*
X934720Y330200D02*
X919480Y330200D01*
X919480Y304800D02*
X934720Y304800D01*
X934720Y279400D02*
X919480Y279400D01*
X88900Y71120D02*
X88900Y55880D01*
X114300Y55880D02*
X114300Y71120D01*
X139700Y71120D02*
X139700Y55880D01*
X165100Y55880D02*
X165100Y71120D01*
X190500Y71120D02*
X190500Y55880D01*
X215900Y55880D02*
X215900Y71120D01*
D13*
X864000Y92647D02*
X864000Y110554D01*
X914000Y110554D02*
X914000Y92647D01*
D12*
X876300Y170180D02*
X876300Y185420D01*
X901700Y185420D02*
X901700Y170180D01*
M02*
